<svg width="80" height="80" viewBox="0 0 80 80" fill="none" xmlns="http://www.w3.org/2000/svg">
<path d="M19.1665 16.6667H28.3332V21.6667H51.6665V16.6667H60.8332V68.3333H19.1665V16.6667ZM40.0832 10C41.4165 10 42.4998 11.1667 42.4998 12.5C42.4998 13.9167 41.4165 15 39.9998 15C38.5832 15 37.4998 13.9167 37.4998 12.5C37.4998 11.0833 38.5832 10 40.0832 10ZM14.1665 15V70C14.1665 71.8333 15.6665 73.3333 17.4998 73.3333H62.4998C64.3332 73.3333 65.8332 71.8333 65.8332 70V15C65.8332 13.1667 64.3332 11.6667 62.4998 11.6667H48.3332V10C48.3332 8.16667 46.8332 6.66667 44.9998 6.66667H34.9998C33.1665 6.66667 31.6665 8.16667 31.6665 10V11.6667H17.4998C15.6665 11.6667 14.1665 13.1667 14.1665 15Z" fill="#5243DF"/>
<path d="M24.1665 28.3333H38.3332V31.6667H24.1665V28.3333Z" fill="#5243DF"/>
<path d="M24.1665 38.3333H38.3332V41.6667H24.1665V38.3333Z" fill="#5243DF"/>
<path d="M24.1665 48.3333H38.3332V51.6667H24.1665V48.3333Z" fill="#5243DF"/>
<path d="M24.1665 58.3333H38.3332V61.6667H24.1665V58.3333Z" fill="#5243DF"/>
<path d="M47.9165 47.0833H53.7498V52.9167H47.9165V47.0833Z" fill="#5243DF"/>
<path d="M47.9165 57.0833H53.7498V62.9167H47.9165V57.0833Z" fill="#5243DF"/>
<path d="M44.083 29.8333L45.833 28.0833L47.9996 30.25L53.4997 24.75L55.2496 26.5L47.9996 33.75L44.083 29.8333Z" fill="#5243DF"/>
<path d="M44.083 39.8333L45.833 38.0833L47.9996 40.25L53.4997 34.75L55.2496 36.5L47.9996 43.75L44.083 39.8333Z" fill="#5243DF"/>
</svg>
