<svg width="51" height="48" viewBox="0 0 51 48" fill="none" xmlns="http://www.w3.org/2000/svg">
<path d="M1.128 45V36.6H4.8C5.712 36.6 6.512 36.776 7.2 37.128C7.888 37.48 8.424 37.968 8.808 38.592C9.192 39.216 9.384 39.952 9.384 40.8C9.384 41.64 9.192 42.376 8.808 43.008C8.424 43.632 7.888 44.12 7.2 44.472C6.512 44.824 5.712 45 4.8 45H1.128ZM2.688 43.68H4.728C5.36 43.68 5.904 43.56 6.36 43.32C6.824 43.08 7.18 42.744 7.428 42.312C7.684 41.88 7.812 41.376 7.812 40.8C7.812 40.216 7.684 39.712 7.428 39.288C7.18 38.856 6.824 38.52 6.36 38.28C5.904 38.04 5.36 37.92 4.728 37.92H2.688V43.68ZM13.9101 45.084C13.1981 45.084 12.5741 44.944 12.0381 44.664C11.5101 44.376 11.0981 43.984 10.8021 43.488C10.5141 42.992 10.3701 42.428 10.3701 41.796C10.3701 41.156 10.5101 40.592 10.7901 40.104C11.0781 39.608 11.4701 39.22 11.9661 38.94C12.4701 38.66 13.0421 38.52 13.6821 38.52C14.3061 38.52 14.8621 38.656 15.3501 38.928C15.8381 39.2 16.2221 39.584 16.5021 40.08C16.7821 40.576 16.9221 41.16 16.9221 41.832C16.9221 41.896 16.9181 41.968 16.9101 42.048C16.9101 42.128 16.9061 42.204 16.8981 42.276H11.5581V41.28H16.1061L15.5181 41.592C15.5261 41.224 15.4501 40.9 15.2901 40.62C15.1301 40.34 14.9101 40.12 14.6301 39.96C14.3581 39.8 14.0421 39.72 13.6821 39.72C13.3141 39.72 12.9901 39.8 12.7101 39.96C12.4381 40.12 12.2221 40.344 12.0621 40.632C11.9101 40.912 11.8341 41.244 11.8341 41.628V41.868C11.8341 42.252 11.9221 42.592 12.0981 42.888C12.2741 43.184 12.5221 43.412 12.8421 43.572C13.1621 43.732 13.5301 43.812 13.9461 43.812C14.3061 43.812 14.6301 43.756 14.9181 43.644C15.2061 43.532 15.4621 43.356 15.6861 43.116L16.4901 44.04C16.2021 44.376 15.8381 44.636 15.3981 44.82C14.9661 44.996 14.4701 45.084 13.9101 45.084ZM18.3629 45V36.096H19.8629V45H18.3629ZM21.8317 45V38.592H23.3317V45H21.8317ZM22.5877 37.536C22.3077 37.536 22.0757 37.448 21.8917 37.272C21.7157 37.096 21.6277 36.884 21.6277 36.636C21.6277 36.38 21.7157 36.168 21.8917 36C22.0757 35.824 22.3077 35.736 22.5877 35.736C22.8677 35.736 23.0957 35.82 23.2717 35.988C23.4557 36.148 23.5477 36.352 23.5477 36.6C23.5477 36.864 23.4597 37.088 23.2837 37.272C23.1077 37.448 22.8757 37.536 22.5877 37.536ZM27.0044 45L24.2564 38.592H25.8164L28.1804 44.244H27.4124L29.8604 38.592H31.3004L28.5524 45H27.0044ZM35.0741 45.084C34.3621 45.084 33.7381 44.944 33.2021 44.664C32.6741 44.376 32.2621 43.984 31.9661 43.488C31.6781 42.992 31.5341 42.428 31.5341 41.796C31.5341 41.156 31.6741 40.592 31.9541 40.104C32.2421 39.608 32.6341 39.22 33.1301 38.94C33.6341 38.66 34.2061 38.52 34.8461 38.52C35.4701 38.52 36.0261 38.656 36.5141 38.928C37.0021 39.2 37.3861 39.584 37.6661 40.08C37.9461 40.576 38.0861 41.16 38.0861 41.832C38.0861 41.896 38.0821 41.968 38.0741 42.048C38.0741 42.128 38.0701 42.204 38.0621 42.276H32.7221V41.28H37.2701L36.6821 41.592C36.6901 41.224 36.6141 40.9 36.4541 40.62C36.2941 40.34 36.0741 40.12 35.7941 39.96C35.5221 39.8 35.2061 39.72 34.8461 39.72C34.4781 39.72 34.1541 39.8 33.8741 39.96C33.6021 40.12 33.3861 40.344 33.2261 40.632C33.0741 40.912 32.9981 41.244 32.9981 41.628V41.868C32.9981 42.252 33.0861 42.592 33.2621 42.888C33.4381 43.184 33.6861 43.412 34.0061 43.572C34.3261 43.732 34.6941 43.812 35.1101 43.812C35.4701 43.812 35.7941 43.756 36.0821 43.644C36.3701 43.532 36.6261 43.356 36.8501 43.116L37.6541 44.04C37.3661 44.376 37.0021 44.636 36.5621 44.82C36.1301 44.996 35.6341 45.084 35.0741 45.084ZM39.527 45V38.592H40.955V40.356L40.787 39.84C40.979 39.408 41.279 39.08 41.687 38.856C42.103 38.632 42.619 38.52 43.235 38.52V39.948C43.171 39.932 43.111 39.924 43.055 39.924C42.999 39.916 42.943 39.912 42.887 39.912C42.319 39.912 41.867 40.08 41.531 40.416C41.195 40.744 41.027 41.236 41.027 41.892V45H39.527ZM45.2698 47.412C44.9578 47.412 44.6458 47.36 44.3338 47.256C44.0218 47.152 43.7618 47.008 43.5538 46.824L44.1538 45.72C44.3058 45.856 44.4778 45.964 44.6698 46.044C44.8618 46.124 45.0578 46.164 45.2578 46.164C45.5298 46.164 45.7498 46.096 45.9178 45.96C46.0858 45.824 46.2418 45.596 46.3858 45.276L46.7578 44.436L46.8778 44.256L49.3018 38.592H50.7418L47.7418 45.516C47.5418 45.996 47.3178 46.376 47.0698 46.656C46.8298 46.936 46.5578 47.132 46.2538 47.244C45.9578 47.356 45.6298 47.412 45.2698 47.412ZM46.5898 45.228L43.6978 38.592H45.2578L47.6098 44.124L46.5898 45.228Z" fill="white"/>
<mask id="mask0_209_444" style="mask-type:alpha" maskUnits="userSpaceOnUse" x="11" y="0" width="30" height="30">
<rect x="11" width="30" height="30" fill="#D9D9D9"/>
</mask>
<g mask="url(#mask0_209_444)">
<path d="M18.5 25C17.4583 25 16.5729 24.6354 15.8438 23.9062C15.1146 23.1771 14.75 22.2917 14.75 21.25H12.25V7.5C12.25 6.8125 12.4948 6.22396 12.9844 5.73438C13.474 5.24479 14.0625 5 14.75 5H32.25V10H36L39.75 15V21.25H37.25C37.25 22.2917 36.8854 23.1771 36.1562 23.9062C35.4271 24.6354 34.5417 25 33.5 25C32.4583 25 31.5729 24.6354 30.8438 23.9062C30.1146 23.1771 29.75 22.2917 29.75 21.25H22.25C22.25 22.2917 21.8854 23.1771 21.1562 23.9062C20.4271 24.6354 19.5417 25 18.5 25ZM18.5 22.5C18.8542 22.5 19.151 22.3802 19.3906 22.1406C19.6302 21.901 19.75 21.6042 19.75 21.25C19.75 20.8958 19.6302 20.599 19.3906 20.3594C19.151 20.1198 18.8542 20 18.5 20C18.1458 20 17.849 20.1198 17.6094 20.3594C17.3698 20.599 17.25 20.8958 17.25 21.25C17.25 21.6042 17.3698 21.901 17.6094 22.1406C17.849 22.3802 18.1458 22.5 18.5 22.5ZM14.75 18.75H15.75C16.1042 18.375 16.5104 18.0729 16.9688 17.8438C17.4271 17.6146 17.9375 17.5 18.5 17.5C19.0625 17.5 19.5729 17.6146 20.0312 17.8438C20.4896 18.0729 20.8958 18.375 21.25 18.75H29.75V7.5H14.75V18.75ZM33.5 22.5C33.8542 22.5 34.151 22.3802 34.3906 22.1406C34.6302 21.901 34.75 21.6042 34.75 21.25C34.75 20.8958 34.6302 20.599 34.3906 20.3594C34.151 20.1198 33.8542 20 33.5 20C33.1458 20 32.849 20.1198 32.6094 20.3594C32.3698 20.599 32.25 20.8958 32.25 21.25C32.25 21.6042 32.3698 21.901 32.6094 22.1406C32.849 22.3802 33.1458 22.5 33.5 22.5ZM32.25 16.25H37.5625L34.75 12.5H32.25V16.25Z" fill="white"/>
</g>
</svg>
