<svg width="80" height="107" viewBox="0 0 80 107" fill="none" xmlns="http://www.w3.org/2000/svg">
<path d="M11.982 98.708H16.868V100.248H11.982V98.708ZM12.136 104H10.316V94.2H17.47V95.726H12.136V104ZM22.021 104.098C21.3863 104.098 20.8263 103.981 20.341 103.748C19.8557 103.505 19.4777 103.141 19.207 102.656C18.9363 102.161 18.801 101.541 18.801 100.794V96.524H20.551V100.556C20.551 101.228 20.7003 101.732 20.999 102.068C21.307 102.395 21.741 102.558 22.301 102.558C22.7117 102.558 23.0663 102.474 23.365 102.306C23.673 102.138 23.911 101.886 24.079 101.55C24.2563 101.214 24.345 100.799 24.345 100.304V96.524H26.095V104H24.429V101.984L24.723 102.6C24.471 103.085 24.1023 103.459 23.617 103.72C23.1317 103.972 22.5997 104.098 22.021 104.098ZM31.9003 104.098C31.0696 104.098 30.3416 103.935 29.7163 103.608C29.1003 103.272 28.6196 102.815 28.2743 102.236C27.9383 101.657 27.7703 100.999 27.7703 100.262C27.7703 99.5153 27.9336 98.8573 28.2603 98.288C28.5963 97.7093 29.0536 97.2567 29.6323 96.93C30.2203 96.6033 30.8876 96.44 31.6343 96.44C32.3623 96.44 33.0109 96.5987 33.5803 96.916C34.1496 97.2333 34.5976 97.6813 34.9243 98.26C35.2509 98.8387 35.4143 99.52 35.4143 100.304C35.4143 100.379 35.4096 100.463 35.4003 100.556C35.4003 100.649 35.3956 100.738 35.3863 100.822H29.1563V99.66H34.4623L33.7763 100.024C33.7856 99.5947 33.6969 99.2167 33.5103 98.89C33.3236 98.5633 33.0669 98.3067 32.7403 98.12C32.4229 97.9333 32.0543 97.84 31.6343 97.84C31.2049 97.84 30.8269 97.9333 30.5003 98.12C30.1829 98.3067 29.9309 98.568 29.7443 98.904C29.5669 99.2307 29.4783 99.618 29.4783 100.066V100.346C29.4783 100.794 29.5809 101.191 29.7863 101.536C29.9916 101.881 30.2809 102.147 30.6543 102.334C31.0276 102.521 31.4569 102.614 31.9423 102.614C32.3623 102.614 32.7403 102.549 33.0763 102.418C33.4123 102.287 33.7109 102.082 33.9723 101.802L34.9103 102.88C34.5743 103.272 34.1496 103.575 33.6363 103.79C33.1323 103.995 32.5536 104.098 31.9003 104.098ZM37.0953 104V93.612H38.8453V104H37.0953ZM49.7713 104.14C49.0059 104.14 48.3013 104.014 47.6573 103.762C47.0133 103.51 46.4533 103.16 45.9773 102.712C45.5013 102.255 45.1326 101.723 44.8713 101.116C44.6099 100.5 44.4793 99.828 44.4793 99.1C44.4793 98.372 44.6099 97.7047 44.8713 97.098C45.1326 96.482 45.5013 95.95 45.9773 95.502C46.4533 95.0447 47.0133 94.69 47.6573 94.438C48.3013 94.186 49.0013 94.06 49.7573 94.06C50.5226 94.06 51.2226 94.186 51.8573 94.438C52.5013 94.69 53.0613 95.0447 53.5373 95.502C54.0133 95.95 54.3819 96.482 54.6433 97.098C54.9046 97.7047 55.0353 98.372 55.0353 99.1C55.0353 99.828 54.9046 100.5 54.6433 101.116C54.3819 101.732 54.0133 102.264 53.5373 102.712C53.0613 103.16 52.5013 103.51 51.8573 103.762C51.2226 104.014 50.5273 104.14 49.7713 104.14ZM49.7573 102.544C50.2519 102.544 50.7093 102.46 51.1293 102.292C51.5493 102.124 51.9133 101.886 52.2213 101.578C52.5293 101.261 52.7673 100.897 52.9353 100.486C53.1126 100.066 53.2013 99.604 53.2013 99.1C53.2013 98.596 53.1126 98.1387 52.9353 97.728C52.7673 97.308 52.5293 96.944 52.2213 96.636C51.9133 96.3187 51.5493 96.076 51.1293 95.908C50.7093 95.74 50.2519 95.656 49.7573 95.656C49.2626 95.656 48.8053 95.74 48.3853 95.908C47.9746 96.076 47.6106 96.3187 47.2933 96.636C46.9853 96.944 46.7426 97.308 46.5653 97.728C46.3973 98.1387 46.3133 98.596 46.3133 99.1C46.3133 99.5947 46.3973 100.052 46.5653 100.472C46.7426 100.892 46.9853 101.261 47.2933 101.578C47.6013 101.886 47.9653 102.124 48.3853 102.292C48.8053 102.46 49.2626 102.544 49.7573 102.544ZM59.9604 104.098C59.3258 104.098 58.7658 103.981 58.2804 103.748C57.7951 103.505 57.4171 103.141 57.1464 102.656C56.8758 102.161 56.7404 101.541 56.7404 100.794V96.524H58.4904V100.556C58.4904 101.228 58.6398 101.732 58.9384 102.068C59.2464 102.395 59.6804 102.558 60.2404 102.558C60.6511 102.558 61.0058 102.474 61.3044 102.306C61.6124 102.138 61.8504 101.886 62.0184 101.55C62.1958 101.214 62.2844 100.799 62.2844 100.304V96.524H64.0344V104H62.3684V101.984L62.6624 102.6C62.4104 103.085 62.0418 103.459 61.5564 103.72C61.0711 103.972 60.5391 104.098 59.9604 104.098ZM69.1397 104.098C68.3184 104.098 67.6837 103.888 67.2357 103.468C66.7877 103.039 66.5637 102.409 66.5637 101.578V94.872H68.3137V101.536C68.3137 101.891 68.4024 102.166 68.5797 102.362C68.7664 102.558 69.0231 102.656 69.3497 102.656C69.7417 102.656 70.0684 102.553 70.3297 102.348L70.8197 103.594C70.6144 103.762 70.3624 103.888 70.0637 103.972C69.7651 104.056 69.4571 104.098 69.1397 104.098ZM65.3317 97.98V96.58H70.3157V97.98H65.3317Z" fill="black"/>
<g clip-path="url(#clip0_108_66)">
<path d="M66.6668 73.3333C61.2957 73.3333 55.5557 70.4155 55.5557 62.2222C55.5557 57.62 58.0402 54.4933 60.4424 51.4711C61.3824 50.2889 62.3335 49.0933 63.1957 47.7689C59.7402 44.6155 55.9379 42.2222 53.3335 42.2222V37.7778C56.9357 37.7778 61.3402 40.2955 65.2935 43.7111C66.1335 41.5 66.6668 38.8733 66.6668 35.5555H71.1113C71.1113 40.3755 70.1157 44.0355 68.7179 46.9978C71.9291 50.4244 74.4757 54.1755 75.4402 57.0733C76.9691 61.6644 76.5135 66.4689 74.2513 69.6111C72.5224 72.0111 69.8268 73.3333 66.6668 73.3333ZM66.3779 50.9955C65.5602 52.1733 64.7179 53.2355 63.9224 54.2355C61.7313 56.9911 60.0002 59.1711 60.0002 62.2222C60.0002 67.7311 63.6268 68.8889 66.6668 68.8889C68.4091 68.8889 69.7491 68.2578 70.6468 67.0111C72.0691 65.0378 72.2935 61.6889 71.2268 58.48C70.5002 56.3067 68.6713 53.5867 66.3779 50.9955Z" fill="#99AAB5"/>
<path d="M47.2266 22.2222H20C15.0911 22.2222 11.3711 26.2022 11.6889 31.1111L14.2889 71.1111C14.6089 76.02 18.2333 80 22.3889 80H44.8377C48.9911 80 52.6177 76.02 52.9377 71.1111L55.54 31.1111C55.8555 26.2022 52.1355 22.2222 47.2266 22.2222Z" fill="#5243DF"/>
<path d="M57.7776 73.3333H8.88873C8.29936 73.3333 7.73413 73.5675 7.31738 73.9842C6.90063 74.4009 6.6665 74.9662 6.6665 75.5556V80H59.9998V75.5556C59.9998 74.9662 59.7657 74.4009 59.349 73.9842C58.9322 73.5675 58.367 73.3333 57.7776 73.3333Z" fill="#AAB8C2"/>
<path d="M68.8887 22.2222C68.2994 22.2222 67.7341 21.9881 67.3174 21.5713C66.9006 21.1546 66.6665 20.5894 66.6665 20V12.8089L71.3443 3.45111C71.4749 3.19007 71.6556 2.95731 71.8762 2.76612C72.0967 2.57492 72.3527 2.42904 72.6297 2.3368C72.9066 2.24456 73.199 2.20777 73.4901 2.22853C73.7813 2.24928 74.0655 2.32718 74.3265 2.45777C74.5875 2.58837 74.8203 2.7691 75.0115 2.98964C75.2027 3.21019 75.3486 3.46623 75.4408 3.74316C75.533 4.02008 75.5698 4.31247 75.5491 4.60361C75.5283 4.89475 75.4504 5.17896 75.3198 5.44L71.1109 13.8578V20C71.1109 20.5894 70.8768 21.1546 70.4601 21.5713C70.0433 21.9881 69.4781 22.2222 68.8887 22.2222Z" fill="#FFAC33"/>
<path d="M74.4444 35.5555H72.7177C73.0999 34.9 73.3333 34.1467 73.3333 33.3333V24.4444C73.3333 22.8044 72.4355 21.3867 71.1111 20.6155V20C71.1111 19.4106 70.8769 18.8454 70.4602 18.4286C70.0434 18.0119 69.4782 17.7778 68.8888 17.7778C68.2995 17.7778 67.7342 18.0119 67.3175 18.4286C66.9007 18.8454 66.6666 19.4106 66.6666 20V20.6155C65.9924 21.0022 65.432 21.5597 65.0419 22.2319C64.6518 22.9041 64.4457 23.6672 64.4444 24.4444V33.3333C64.4444 34.1467 64.6777 34.9 65.0599 35.5555H63.3333C63.0386 35.5555 62.756 35.6726 62.5476 35.881C62.3392 36.0894 62.2222 36.372 62.2222 36.6667C62.2222 36.9613 62.3392 37.244 62.5476 37.4523C62.756 37.6607 63.0386 37.7778 63.3333 37.7778H74.4444C74.7391 37.7778 75.0217 37.6607 75.2301 37.4523C75.4384 37.244 75.5555 36.9613 75.5555 36.6667C75.5555 36.372 75.4384 36.0894 75.2301 35.881C75.0217 35.6726 74.7391 35.5555 74.4444 35.5555Z" fill="#BE1931"/>
<path d="M55.5557 31.1111C55.5557 31.7005 55.7898 32.2657 56.2065 32.6825C56.6233 33.0992 57.1885 33.3333 57.7779 33.3333H68.889C69.4784 33.3333 70.0436 33.0992 70.4603 32.6825C70.8771 32.2657 71.1112 31.7005 71.1112 31.1111C71.1112 30.5217 70.8771 29.9565 70.4603 29.5398C70.0436 29.123 69.4784 28.8889 68.889 28.8889H57.7779C57.1885 28.8889 56.6233 29.123 56.2065 29.5398C55.7898 29.9565 55.5557 30.5217 55.5557 31.1111Z" fill="#99AAB5"/>
<path d="M59.9998 31.1111C59.9998 33.4686 59.0633 35.7295 57.3963 37.3965C55.7293 39.0635 53.4684 40 51.1109 40H15.5554C13.1979 40 10.937 39.0635 9.27 37.3965C7.60301 35.7295 6.6665 33.4686 6.6665 31.1111V8.88889C6.6665 6.53141 7.60301 4.27049 9.27 2.6035C10.937 0.936505 13.1979 0 15.5554 0L51.1109 0C53.4684 0 55.7293 0.936505 57.3963 2.6035C59.0633 4.27049 59.9998 6.53141 59.9998 8.88889V31.1111Z" fill="#E1E8ED"/>
<path d="M55.5558 31.1111C55.5558 32.2899 55.0875 33.4203 54.254 34.2538C53.4205 35.0873 52.2901 35.5556 51.1113 35.5556H15.5558C14.377 35.5556 13.2466 35.0873 12.4131 34.2538C11.5796 33.4203 11.1113 32.2899 11.1113 31.1111V8.8889C11.1113 7.71016 11.5796 6.5797 12.4131 5.74621C13.2466 4.91271 14.377 4.44446 15.5558 4.44446H51.1113C52.2901 4.44446 53.4205 4.91271 54.254 5.74621C55.0875 6.5797 55.5558 7.71016 55.5558 8.8889V31.1111Z" fill="#66757F"/>
<path d="M28.8887 11.1111H48.8887V17.7778H28.8887V11.1111Z" fill="#AAB8C2"/>
</g>
<defs>
<clipPath id="clip0_108_66">
<rect width="80" height="80" fill="white"/>
</clipPath>
</defs>
</svg>
