<svg width="80" height="107" viewBox="0 0 80 107" fill="none" xmlns="http://www.w3.org/2000/svg">
<path d="M66.6668 73.3333C61.2957 73.3333 55.5557 70.4155 55.5557 62.2222C55.5557 57.62 58.0402 54.4933 60.4424 51.4711C61.3824 50.2889 62.3335 49.0933 63.1957 47.7689C59.7402 44.6155 55.9379 42.2222 53.3335 42.2222V37.7778C56.9357 37.7778 61.3402 40.2955 65.2935 43.7111C66.1335 41.5 66.6668 38.8733 66.6668 35.5555H71.1113C71.1113 40.3755 70.1157 44.0355 68.7179 46.9978C71.929 50.4244 74.4757 54.1755 75.4402 57.0733C76.9691 61.6644 76.5135 66.4689 74.2513 69.6111C72.5224 72.0111 69.8268 73.3333 66.6668 73.3333ZM66.3779 50.9955C65.5602 52.1733 64.7179 53.2355 63.9224 54.2355C61.7313 56.9911 60.0002 59.1711 60.0002 62.2222C60.0002 67.7311 63.6268 68.8889 66.6668 68.8889C68.409 68.8889 69.749 68.2578 70.6468 67.0111C72.069 65.0378 72.2935 61.6889 71.2268 58.48C70.5002 56.3067 68.6713 53.5867 66.3779 50.9955Z" fill="#99AAB5"/>
<path d="M47.2266 22.2222H20C15.0911 22.2222 11.3711 26.2022 11.6889 31.1111L14.2889 71.1111C14.6089 76.02 18.2333 80 22.3889 80H44.8377C48.9911 80 52.6177 76.02 52.9377 71.1111L55.54 31.1111C55.8555 26.2022 52.1355 22.2222 47.2266 22.2222Z" fill="#5243DF"/>
<path d="M57.7776 73.3333H8.88873C8.29936 73.3333 7.73413 73.5675 7.31738 73.9842C6.90063 74.4009 6.6665 74.9662 6.6665 75.5556V80H59.9998V75.5556C59.9998 74.9662 59.7657 74.4009 59.349 73.9842C58.9322 73.5675 58.367 73.3333 57.7776 73.3333Z" fill="#AAB8C2"/>
<path d="M69.0659 22.4C69.6553 22.4 70.2205 22.1659 70.6372 21.7491C71.054 21.3323 71.2881 20.7671 71.2881 20.1777V12.9863L66.6104 3.62824C66.4798 3.3672 66.2991 3.13443 66.0786 2.94323C65.858 2.75203 65.602 2.60614 65.3251 2.5139C65.0481 2.42166 64.7558 2.38486 64.4646 2.40562C64.1735 2.42638 63.8893 2.50428 63.6283 2.63488C63.3672 2.76547 63.1345 2.94621 62.9433 3.16676C62.7521 3.38732 62.6062 3.64337 62.514 3.9203C62.4218 4.19724 62.385 4.48963 62.4057 4.78078C62.4265 5.07194 62.5044 5.35615 62.635 5.6172L66.8437 14.0353V20.1777C66.8437 20.7671 67.0779 21.3323 67.4946 21.7491C67.9113 22.1659 68.4766 22.4 69.0659 22.4Z" fill="#5243DF"/>
<path d="M74.4444 35.5555H72.7177C73.0999 34.9 73.3333 34.1467 73.3333 33.3333V24.4444C73.3333 22.8044 72.4355 21.3867 71.1111 20.6155V20C71.1111 19.4106 70.8769 18.8454 70.4602 18.4286C70.0434 18.0119 69.4782 17.7778 68.8888 17.7778C68.2995 17.7778 67.7342 18.0119 67.3175 18.4286C66.9007 18.8454 66.6666 19.4106 66.6666 20V20.6155C65.9924 21.0022 65.432 21.5597 65.0419 22.2319C64.6518 22.9041 64.4457 23.6672 64.4444 24.4444V33.3333C64.4444 34.1467 64.6777 34.9 65.0599 35.5555H63.3333C63.0386 35.5555 62.756 35.6726 62.5476 35.881C62.3392 36.0894 62.2222 36.372 62.2222 36.6667C62.2222 36.9613 62.3392 37.244 62.5476 37.4523C62.756 37.6607 63.0386 37.7778 63.3333 37.7778H74.4444C74.7391 37.7778 75.0217 37.6607 75.2301 37.4523C75.4384 37.244 75.5555 36.9613 75.5555 36.6667C75.5555 36.372 75.4384 36.0894 75.2301 35.881C75.0217 35.6726 74.7391 35.5555 74.4444 35.5555Z" fill="#BE1931"/>
<path d="M55.5557 31.1111C55.5557 31.7005 55.7898 32.2657 56.2065 32.6825C56.6233 33.0992 57.1885 33.3333 57.7779 33.3333H68.889C69.4784 33.3333 70.0436 33.0992 70.4603 32.6825C70.8771 32.2657 71.1112 31.7005 71.1112 31.1111C71.1112 30.5217 70.8771 29.9565 70.4603 29.5398C70.0436 29.123 69.4784 28.8889 68.889 28.8889H57.7779C57.1885 28.8889 56.6233 29.123 56.2065 29.5398C55.7898 29.9565 55.5557 30.5217 55.5557 31.1111Z" fill="#99AAB5"/>
<path d="M59.9998 31.1111C59.9998 33.4686 59.0633 35.7295 57.3963 37.3965C55.7293 39.0635 53.4684 40 51.1109 40H15.5554C13.1979 40 10.937 39.0635 9.27 37.3965C7.60301 35.7295 6.6665 33.4686 6.6665 31.1111V8.88889C6.6665 6.53141 7.60301 4.27049 9.27 2.6035C10.937 0.936505 13.1979 0 15.5554 0L51.1109 0C53.4684 0 55.7293 0.936505 57.3963 2.6035C59.0633 4.27049 59.9998 6.53141 59.9998 8.88889V31.1111Z" fill="#E1E8ED"/>
<path d="M55.5558 31.1111C55.5558 32.2899 55.0875 33.4203 54.254 34.2538C53.4205 35.0873 52.2901 35.5556 51.1113 35.5556H15.5558C14.377 35.5556 13.2466 35.0873 12.4131 34.2538C11.5796 33.4203 11.1113 32.2899 11.1113 31.1111V8.8889C11.1113 7.71016 11.5796 6.5797 12.4131 5.74621C13.2466 4.91271 14.377 4.44446 15.5558 4.44446H51.1113C52.2901 4.44446 53.4205 4.91271 54.254 5.74621C55.0875 6.5797 55.5558 7.71016 55.5558 8.8889V31.1111Z" fill="#66757F"/>
<path d="M28.8887 11.1111H48.8887V17.7778H28.8887V11.1111Z" fill="#AAB8C2"/>
<path d="M18.982 98.708H23.868V100.248H18.982V98.708ZM19.136 104H17.316V94.2H24.47V95.726H19.136V104ZM29.021 104.098C28.3863 104.098 27.8263 103.981 27.341 103.748C26.8557 103.505 26.4777 103.141 26.207 102.656C25.9363 102.161 25.801 101.541 25.801 100.794V96.524H27.551V100.556C27.551 101.228 27.7003 101.732 27.999 102.068C28.307 102.395 28.741 102.558 29.301 102.558C29.7117 102.558 30.0663 102.474 30.365 102.306C30.673 102.138 30.911 101.886 31.079 101.55C31.2563 101.214 31.345 100.799 31.345 100.304V96.524H33.095V104H31.429V101.984L31.723 102.6C31.471 103.085 31.1023 103.459 30.617 103.72C30.1317 103.972 29.5997 104.098 29.021 104.098ZM38.9003 104.098C38.0696 104.098 37.3416 103.935 36.7163 103.608C36.1003 103.272 35.6196 102.815 35.2743 102.236C34.9383 101.657 34.7703 100.999 34.7703 100.262C34.7703 99.5153 34.9336 98.8573 35.2603 98.288C35.5963 97.7093 36.0536 97.2567 36.6323 96.93C37.2203 96.6033 37.8876 96.44 38.6343 96.44C39.3623 96.44 40.0109 96.5987 40.5803 96.916C41.1496 97.2333 41.5976 97.6813 41.9243 98.26C42.2509 98.8387 42.4143 99.52 42.4143 100.304C42.4143 100.379 42.4096 100.463 42.4003 100.556C42.4003 100.649 42.3956 100.738 42.3863 100.822H36.1563V99.66H41.4623L40.7763 100.024C40.7856 99.5947 40.6969 99.2167 40.5103 98.89C40.3236 98.5633 40.0669 98.3067 39.7403 98.12C39.4229 97.9333 39.0543 97.84 38.6343 97.84C38.2049 97.84 37.8269 97.9333 37.5003 98.12C37.1829 98.3067 36.9309 98.568 36.7443 98.904C36.5669 99.2307 36.4783 99.618 36.4783 100.066V100.346C36.4783 100.794 36.5809 101.191 36.7863 101.536C36.9916 101.881 37.2809 102.147 37.6543 102.334C38.0276 102.521 38.4569 102.614 38.9423 102.614C39.3623 102.614 39.7403 102.549 40.0763 102.418C40.4123 102.287 40.7109 102.082 40.9723 101.802L41.9103 102.88C41.5743 103.272 41.1496 103.575 40.6363 103.79C40.1323 103.995 39.5536 104.098 38.9003 104.098ZM44.0953 104V93.612H45.8453V104H44.0953ZM52.1793 104V94.2H53.9993V104H52.1793ZM60.724 96.44C61.3213 96.44 61.8533 96.5567 62.32 96.79C62.796 97.0233 63.1693 97.3827 63.44 97.868C63.7107 98.344 63.846 98.96 63.846 99.716V104H62.096V99.94C62.096 99.2773 61.9373 98.7827 61.62 98.456C61.312 98.1293 60.878 97.966 60.318 97.966C59.9073 97.966 59.5433 98.05 59.226 98.218C58.9087 98.386 58.6613 98.638 58.484 98.974C58.316 99.3007 58.232 99.716 58.232 100.22V104H56.482V96.524H58.148V98.54L57.854 97.924C58.1153 97.448 58.4933 97.084 58.988 96.832C59.492 96.5707 60.0707 96.44 60.724 96.44Z" fill="black"/>
</svg>
