<svg width="80" height="107" viewBox="0 0 80 107" fill="none" xmlns="http://www.w3.org/2000/svg">
<path d="M5.316 104V94.2H7.136V102.46H12.26V104H5.316ZM13.5289 104V96.524H15.2789V104H13.5289ZM14.4109 95.292C14.0842 95.292 13.8135 95.1893 13.5989 94.984C13.3935 94.7787 13.2909 94.5313 13.2909 94.242C13.2909 93.9433 13.3935 93.696 13.5989 93.5C13.8135 93.2947 14.0842 93.192 14.4109 93.192C14.7375 93.192 15.0035 93.29 15.2089 93.486C15.4235 93.6727 15.5309 93.9107 15.5309 94.2C15.5309 94.508 15.4282 94.7693 15.2229 94.984C15.0175 95.1893 14.7469 95.292 14.4109 95.292ZM19.8857 104.098C19.2604 104.098 18.6584 104.019 18.0797 103.86C17.5104 103.692 17.0577 103.491 16.7217 103.258L17.3937 101.928C17.7297 102.143 18.1311 102.32 18.5977 102.46C19.0644 102.6 19.5311 102.67 19.9977 102.67C20.5484 102.67 20.9451 102.595 21.1877 102.446C21.4397 102.297 21.5657 102.096 21.5657 101.844C21.5657 101.639 21.4817 101.485 21.3137 101.382C21.1457 101.27 20.9264 101.186 20.6557 101.13C20.3851 101.074 20.0817 101.023 19.7457 100.976C19.4191 100.929 19.0877 100.869 18.7517 100.794C18.4251 100.71 18.1264 100.593 17.8557 100.444C17.5851 100.285 17.3657 100.075 17.1977 99.814C17.0297 99.5527 16.9457 99.2073 16.9457 98.778C16.9457 98.302 17.0811 97.8913 17.3517 97.546C17.6224 97.1913 18.0004 96.9207 18.4857 96.734C18.9804 96.538 19.5637 96.44 20.2357 96.44C20.7397 96.44 21.2484 96.496 21.7617 96.608C22.2751 96.72 22.6997 96.8787 23.0357 97.084L22.3637 98.414C22.0091 98.1993 21.6497 98.0547 21.2857 97.98C20.9311 97.896 20.5764 97.854 20.2217 97.854C19.6897 97.854 19.2931 97.9333 19.0317 98.092C18.7797 98.2507 18.6537 98.4513 18.6537 98.694C18.6537 98.918 18.7377 99.086 18.9057 99.198C19.0737 99.31 19.2931 99.3987 19.5637 99.464C19.8344 99.5293 20.1331 99.5853 20.4597 99.632C20.7957 99.6693 21.1271 99.73 21.4537 99.814C21.7804 99.898 22.0791 100.015 22.3497 100.164C22.6297 100.304 22.8537 100.505 23.0217 100.766C23.1897 101.027 23.2737 101.368 23.2737 101.788C23.2737 102.255 23.1337 102.661 22.8537 103.006C22.5831 103.351 22.1957 103.622 21.6917 103.818C21.1877 104.005 20.5857 104.098 19.8857 104.098ZM27.5948 104.098C26.7735 104.098 26.1388 103.888 25.6908 103.468C25.2428 103.039 25.0188 102.409 25.0188 101.578V94.872H26.7688V101.536C26.7688 101.891 26.8575 102.166 27.0348 102.362C27.2215 102.558 27.4781 102.656 27.8048 102.656C28.1968 102.656 28.5235 102.553 28.7848 102.348L29.2748 103.594C29.0695 103.762 28.8175 103.888 28.5188 103.972C28.2201 104.056 27.9121 104.098 27.5948 104.098ZM23.7868 97.98V96.58H28.7708V97.98H23.7868ZM39.3435 104.14C38.5782 104.14 37.8735 104.014 37.2295 103.762C36.5855 103.51 36.0255 103.16 35.5495 102.712C35.0735 102.255 34.7049 101.723 34.4435 101.116C34.1822 100.5 34.0515 99.828 34.0515 99.1C34.0515 98.372 34.1822 97.7047 34.4435 97.098C34.7049 96.482 35.0735 95.95 35.5495 95.502C36.0255 95.0447 36.5855 94.69 37.2295 94.438C37.8735 94.186 38.5735 94.06 39.3295 94.06C40.0949 94.06 40.7949 94.186 41.4295 94.438C42.0735 94.69 42.6335 95.0447 43.1095 95.502C43.5855 95.95 43.9542 96.482 44.2155 97.098C44.4769 97.7047 44.6075 98.372 44.6075 99.1C44.6075 99.828 44.4769 100.5 44.2155 101.116C43.9542 101.732 43.5855 102.264 43.1095 102.712C42.6335 103.16 42.0735 103.51 41.4295 103.762C40.7949 104.014 40.0995 104.14 39.3435 104.14ZM39.3295 102.544C39.8242 102.544 40.2815 102.46 40.7015 102.292C41.1215 102.124 41.4855 101.886 41.7935 101.578C42.1015 101.261 42.3395 100.897 42.5075 100.486C42.6849 100.066 42.7735 99.604 42.7735 99.1C42.7735 98.596 42.6849 98.1387 42.5075 97.728C42.3395 97.308 42.1015 96.944 41.7935 96.636C41.4855 96.3187 41.1215 96.076 40.7015 95.908C40.2815 95.74 39.8242 95.656 39.3295 95.656C38.8349 95.656 38.3775 95.74 37.9575 95.908C37.5469 96.076 37.1829 96.3187 36.8655 96.636C36.5575 96.944 36.3149 97.308 36.1375 97.728C35.9695 98.1387 35.8855 98.596 35.8855 99.1C35.8855 99.5947 35.9695 100.052 36.1375 100.472C36.3149 100.892 36.5575 101.261 36.8655 101.578C37.1735 101.886 37.5375 102.124 37.9575 102.292C38.3775 102.46 38.8349 102.544 39.3295 102.544ZM46.3687 104V96.524H48.0347V98.582L47.8387 97.98C48.0627 97.476 48.4127 97.0933 48.8887 96.832C49.374 96.5707 49.976 96.44 50.6947 96.44V98.106C50.62 98.0873 50.55 98.078 50.4847 98.078C50.4194 98.0687 50.354 98.064 50.2887 98.064C49.626 98.064 49.0987 98.26 48.7067 98.652C48.3147 99.0347 48.1187 99.6087 48.1187 100.374V104H46.3687ZM55.2749 104.098C54.5562 104.098 53.9076 103.939 53.3289 103.622C52.7596 103.295 52.3116 102.847 51.9849 102.278C51.6582 101.709 51.4949 101.037 51.4949 100.262C51.4949 99.4873 51.6582 98.8153 51.9849 98.246C52.3116 97.6767 52.7596 97.2333 53.3289 96.916C53.9076 96.5987 54.5562 96.44 55.2749 96.44C55.9002 96.44 56.4602 96.58 56.9549 96.86C57.4496 97.1307 57.8416 97.546 58.1309 98.106C58.4202 98.666 58.5649 99.3847 58.5649 100.262C58.5649 101.13 58.4249 101.849 58.1449 102.418C57.8649 102.978 57.4776 103.398 56.9829 103.678C56.4882 103.958 55.9189 104.098 55.2749 104.098ZM55.4849 102.6C55.9049 102.6 56.2782 102.507 56.6049 102.32C56.9409 102.133 57.2069 101.863 57.4029 101.508C57.6082 101.153 57.7109 100.738 57.7109 100.262C57.7109 99.7767 57.6082 99.3613 57.4029 99.016C57.2069 98.6613 56.9409 98.3907 56.6049 98.204C56.2782 98.0173 55.9049 97.924 55.4849 97.924C55.0649 97.924 54.6869 98.0173 54.3509 98.204C54.0242 98.3907 53.7582 98.6613 53.5529 99.016C53.3569 99.3613 53.2589 99.7767 53.2589 100.262C53.2589 100.738 53.3569 101.153 53.5529 101.508C53.7582 101.863 54.0242 102.133 54.3509 102.32C54.6869 102.507 55.0649 102.6 55.4849 102.6ZM57.7529 104V102.236L57.8229 100.248L57.6829 98.26V93.612H59.4189V104H57.7529ZM65.2362 104.098C64.4056 104.098 63.6776 103.935 63.0522 103.608C62.4362 103.272 61.9556 102.815 61.6102 102.236C61.2742 101.657 61.1062 100.999 61.1062 100.262C61.1062 99.5153 61.2696 98.8573 61.5962 98.288C61.9322 97.7093 62.3896 97.2567 62.9682 96.93C63.5562 96.6033 64.2236 96.44 64.9702 96.44C65.6982 96.44 66.3469 96.5987 66.9162 96.916C67.4856 97.2333 67.9336 97.6813 68.2602 98.26C68.5869 98.8387 68.7502 99.52 68.7502 100.304C68.7502 100.379 68.7456 100.463 68.7362 100.556C68.7362 100.649 68.7316 100.738 68.7222 100.822H62.4922V99.66H67.7982L67.1122 100.024C67.1216 99.5947 67.0329 99.2167 66.8462 98.89C66.6596 98.5633 66.4029 98.3067 66.0762 98.12C65.7589 97.9333 65.3902 97.84 64.9702 97.84C64.5409 97.84 64.1629 97.9333 63.8362 98.12C63.5189 98.3067 63.2669 98.568 63.0802 98.904C62.9029 99.2307 62.8142 99.618 62.8142 100.066V100.346C62.8142 100.794 62.9169 101.191 63.1222 101.536C63.3276 101.881 63.6169 102.147 63.9902 102.334C64.3636 102.521 64.7929 102.614 65.2782 102.614C65.6982 102.614 66.0762 102.549 66.4122 102.418C66.7482 102.287 67.0469 102.082 67.3082 101.802L68.2462 102.88C67.9102 103.272 67.4856 103.575 66.9722 103.79C66.4682 103.995 65.8896 104.098 65.2362 104.098ZM70.4312 104V96.524H72.0972V98.582L71.9012 97.98C72.1252 97.476 72.4752 97.0933 72.9512 96.832C73.4365 96.5707 74.0385 96.44 74.7572 96.44V98.106C74.6825 98.0873 74.6125 98.078 74.5472 98.078C74.4819 98.0687 74.4165 98.064 74.3512 98.064C73.6885 98.064 73.1612 98.26 72.7692 98.652C72.3772 99.0347 72.1812 99.6087 72.1812 100.374V104H70.4312Z" fill="black"/>
<path d="M11.6535 53.59H18.629C20.8675 53.59 22.6823 55.4047 22.6823 57.6434V64.6188C22.6823 66.8575 20.8675 68.6722 18.629 68.6722H11.6535C9.4149 68.6722 7.6001 66.8575 7.6001 64.6188V57.6434C7.6001 55.4047 9.4149 53.59 11.6535 53.59ZM11.6535 32.475H18.629C20.8675 32.475 22.6823 34.2897 22.6823 36.5283V43.5038C22.6823 45.7424 20.8675 47.5571 18.629 47.5571H11.6535C9.4149 47.5571 7.6001 45.7424 7.6001 43.5038V36.5283C7.6001 34.2897 9.4149 32.475 11.6535 32.475ZM11.6535 11.3599H18.629C20.8675 11.3599 22.6823 13.1747 22.6823 15.4133V22.3888C22.6823 24.6274 20.8675 26.4421 18.629 26.4421H11.6535C9.4149 26.4421 7.6001 24.6274 7.6001 22.3888V15.4133C7.6001 13.1747 9.4149 11.36 11.6535 11.36" fill="#FFF200"/>
<path d="M18.6289 53.59H11.6534C9.41482 53.59 7.6001 55.4048 7.6001 57.6434V64.6188C7.6001 66.8575 9.41482 68.6722 11.6534 68.6722H18.6289C20.8675 68.6722 22.6823 66.8575 22.6823 64.6188V57.6434C22.6823 55.4047 20.8675 53.59 18.6289 53.59ZM18.6289 56.79C19.0995 56.79 19.4823 57.1728 19.4823 57.6434V64.6188C19.4823 65.0894 19.0995 65.4722 18.6289 65.4722H11.6534C11.183 65.4722 10.8001 65.0894 10.8001 64.6188V57.6434C10.8001 57.1728 11.1829 56.79 11.6534 56.79H18.6289ZM18.6289 32.475H11.6534C9.41482 32.475 7.6001 34.2897 7.6001 36.5283V43.5038C7.6001 45.7424 9.41482 47.5571 11.6534 47.5571H18.6289C20.8675 47.5571 22.6823 45.7424 22.6823 43.5038V36.5283C22.6823 34.2897 20.8675 32.475 18.6289 32.475ZM18.6289 35.675C19.0995 35.675 19.4823 36.0578 19.4823 36.5283V43.5038C19.4823 43.9743 19.0995 44.3571 18.6289 44.3571H11.6534C11.183 44.3571 10.8001 43.9743 10.8001 43.5038V36.5283C10.8001 36.0578 11.1829 35.675 11.6534 35.675H18.6289ZM18.6289 11.3599H11.6534C9.41482 11.36 7.6001 13.1747 7.6001 15.4133V22.3888C7.6001 24.6274 9.41482 26.4421 11.6534 26.4421H18.6289C20.8675 26.4421 22.6823 24.6274 22.6823 22.3888V15.4133C22.6823 13.1747 20.8675 11.3599 18.6289 11.3599ZM18.6289 14.5599C19.0995 14.5599 19.4823 14.9427 19.4823 15.4133V22.3888C19.4823 22.8593 19.0995 23.2421 18.6289 23.2421H11.6534C11.183 23.2421 10.8001 22.8593 10.8001 22.3888V15.4133C10.8001 14.9427 11.1829 14.5599 11.6534 14.5599H18.6289ZM70.9507 59.6229H27.2013C26.3776 59.6229 25.6987 60.2981 25.6987 61.131C25.6987 61.9698 26.3715 62.6393 27.2013 62.6393H70.9507C71.7744 62.6393 72.4534 61.9641 72.4534 61.131C72.4534 60.2923 71.7806 59.6229 70.9507 59.6229ZM70.9507 38.5078H27.2013C26.3776 38.5078 25.6987 39.1831 25.6987 40.0161C25.6987 40.8548 26.3715 41.5242 27.2013 41.5242H70.9507C71.7744 41.5242 72.4534 40.849 72.4534 40.0161C72.4534 39.1773 71.7806 38.5078 70.9507 38.5078ZM70.9507 17.3928H27.2013C26.3776 17.3928 25.6987 18.0681 25.6987 18.901C25.6987 19.7398 26.3715 20.4093 27.2013 20.4093H70.9507C71.7744 20.4093 72.4534 19.7341 72.4534 18.901C72.4534 18.0622 71.7806 17.3928 70.9507 17.3928Z" fill="#99AAB5"/>
</svg>
