<svg width="43" height="48" viewBox="0 0 43 48" fill="none" xmlns="http://www.w3.org/2000/svg">
<path d="M1.128 45V36.6H4.584C5.328 36.6 5.964 36.72 6.492 36.96C7.028 37.2 7.44 37.544 7.728 37.992C8.016 38.44 8.16 38.972 8.16 39.588C8.16 40.204 8.016 40.736 7.728 41.184C7.44 41.632 7.028 41.976 6.492 42.216C5.964 42.456 5.328 42.576 4.584 42.576H1.992L2.688 41.844V45H1.128ZM2.688 42.012L1.992 41.256H4.512C5.2 41.256 5.716 41.112 6.06 40.824C6.412 40.528 6.588 40.116 6.588 39.588C6.588 39.052 6.412 38.64 6.06 38.352C5.716 38.064 5.2 37.92 4.512 37.92H1.992L2.688 37.152V42.012ZM9.69103 45V38.592H11.191V45H9.69103ZM10.447 37.536C10.167 37.536 9.93503 37.448 9.75103 37.272C9.57503 37.096 9.48703 36.884 9.48703 36.636C9.48703 36.38 9.57503 36.168 9.75103 36C9.93503 35.824 10.167 35.736 10.447 35.736C10.727 35.736 10.955 35.82 11.131 35.988C11.315 36.148 11.407 36.352 11.407 36.6C11.407 36.864 11.319 37.088 11.143 37.272C10.967 37.448 10.735 37.536 10.447 37.536ZM16.0998 45.084C15.4278 45.084 14.8278 44.944 14.2998 44.664C13.7798 44.376 13.3718 43.984 13.0758 43.488C12.7798 42.992 12.6318 42.428 12.6318 41.796C12.6318 41.156 12.7798 40.592 13.0758 40.104C13.3718 39.608 13.7798 39.22 14.2998 38.94C14.8278 38.66 15.4278 38.52 16.0998 38.52C16.7238 38.52 17.2718 38.648 17.7438 38.904C18.2238 39.152 18.5878 39.52 18.8358 40.008L17.6838 40.68C17.4918 40.376 17.2558 40.152 16.9758 40.008C16.7038 39.864 16.4078 39.792 16.0878 39.792C15.7198 39.792 15.3878 39.872 15.0918 40.032C14.7958 40.192 14.5638 40.424 14.3958 40.728C14.2278 41.024 14.1438 41.38 14.1438 41.796C14.1438 42.212 14.2278 42.572 14.3958 42.876C14.5638 43.172 14.7958 43.4 15.0918 43.56C15.3878 43.72 15.7198 43.8 16.0878 43.8C16.4078 43.8 16.7038 43.728 16.9758 43.584C17.2558 43.44 17.4918 43.216 17.6838 42.912L18.8358 43.584C18.5878 44.064 18.2238 44.436 17.7438 44.7C17.2718 44.956 16.7238 45.084 16.0998 45.084ZM21.2978 43.572L21.3338 41.688L24.6818 38.592H26.4818L23.6378 41.448L22.8458 42.108L21.2978 43.572ZM20.0738 45V36.096H21.5738V45H20.0738ZM24.9098 45L22.5698 42.108L23.5178 40.908L26.7338 45H24.9098ZM30.2976 45.084C29.7536 45.084 29.2736 44.984 28.8576 44.784C28.4416 44.576 28.1176 44.264 27.8856 43.848C27.6536 43.424 27.5376 42.892 27.5376 42.252V38.592H29.0376V42.048C29.0376 42.624 29.1656 43.056 29.4216 43.344C29.6856 43.624 30.0576 43.764 30.5376 43.764C30.8896 43.764 31.1936 43.692 31.4496 43.548C31.7136 43.404 31.9176 43.188 32.0616 42.9C32.2136 42.612 32.2896 42.256 32.2896 41.832V38.592H33.7896V45H32.3616V43.272L32.6136 43.8C32.3976 44.216 32.0816 44.536 31.6656 44.76C31.2496 44.976 30.7936 45.084 30.2976 45.084ZM39.3055 45.084C38.7855 45.084 38.3095 44.964 37.8775 44.724C37.4535 44.484 37.1135 44.124 36.8575 43.644C36.6095 43.156 36.4855 42.54 36.4855 41.796C36.4855 41.044 36.6055 40.428 36.8455 39.948C37.0935 39.468 37.4295 39.112 37.8535 38.88C38.2775 38.64 38.7615 38.52 39.3055 38.52C39.9375 38.52 40.4935 38.656 40.9735 38.928C41.4615 39.2 41.8455 39.58 42.1255 40.068C42.4135 40.556 42.5575 41.132 42.5575 41.796C42.5575 42.46 42.4135 43.04 42.1255 43.536C41.8455 44.024 41.4615 44.404 40.9735 44.676C40.4935 44.948 39.9375 45.084 39.3055 45.084ZM35.7535 47.328V38.592H37.1815V40.104L37.1335 41.808L37.2535 43.512V47.328H35.7535ZM39.1375 43.8C39.4975 43.8 39.8175 43.72 40.0975 43.56C40.3855 43.4 40.6135 43.168 40.7815 42.864C40.9495 42.56 41.0335 42.204 41.0335 41.796C41.0335 41.38 40.9495 41.024 40.7815 40.728C40.6135 40.424 40.3855 40.192 40.0975 40.032C39.8175 39.872 39.4975 39.792 39.1375 39.792C38.7775 39.792 38.4535 39.872 38.1655 40.032C37.8775 40.192 37.6495 40.424 37.4815 40.728C37.3135 41.024 37.2295 41.38 37.2295 41.796C37.2295 42.204 37.3135 42.56 37.4815 42.864C37.6495 43.168 37.8775 43.4 38.1655 43.56C38.4535 43.72 38.7775 43.8 39.1375 43.8Z" fill="#B2B2B2"/>
<mask id="mask0_209_456" style="mask-type:alpha" maskUnits="userSpaceOnUse" x="7" y="0" width="30" height="30">
<rect x="7" width="30" height="30" fill="#D9D9D9"/>
</mask>
<g mask="url(#mask0_209_456)">
<path d="M13.25 27.5C12.5625 27.5 11.974 27.2552 11.4844 26.7656C10.9948 26.276 10.75 25.6875 10.75 25V10C10.75 9.3125 10.9948 8.72396 11.4844 8.23438C11.974 7.74479 12.5625 7.5 13.25 7.5H15.75C15.75 5.77083 16.3594 4.29688 17.5781 3.07812C18.7969 1.85937 20.2708 1.25 22 1.25C23.7292 1.25 25.2031 1.85937 26.4219 3.07812C27.6406 4.29688 28.25 5.77083 28.25 7.5H30.75C31.4375 7.5 32.026 7.74479 32.5156 8.23438C33.0052 8.72396 33.25 9.3125 33.25 10V25C33.25 25.6875 33.0052 26.276 32.5156 26.7656C32.026 27.2552 31.4375 27.5 30.75 27.5H13.25ZM13.25 25H30.75V10H13.25V25ZM22 17.5C23.7292 17.5 25.2031 16.8906 26.4219 15.6719C27.6406 14.4531 28.25 12.9792 28.25 11.25H25.75C25.75 12.2917 25.3854 13.1771 24.6562 13.9062C23.9271 14.6354 23.0417 15 22 15C20.9583 15 20.0729 14.6354 19.3438 13.9062C18.6146 13.1771 18.25 12.2917 18.25 11.25H15.75C15.75 12.9792 16.3594 14.4531 17.5781 15.6719C18.7969 16.8906 20.2708 17.5 22 17.5ZM18.25 7.5H25.75C25.75 6.45833 25.3854 5.57292 24.6562 4.84375C23.9271 4.11458 23.0417 3.75 22 3.75C20.9583 3.75 20.0729 4.11458 19.3438 4.84375C18.6146 5.57292 18.25 6.45833 18.25 7.5Z" fill="#B2B2B2"/>
</g>
</svg>
