<svg width="39" height="39" viewBox="0 0 39 39" fill="none" xmlns="http://www.w3.org/2000/svg">
<path d="M0.75 10.125V0.75H10.125V4.5H4.5V10.125H0.75ZM0.75 38.25V28.875H4.5V34.5H10.125V38.25H0.75ZM28.875 38.25V34.5H34.5V28.875H38.25V38.25H28.875ZM34.5 10.125V4.5H28.875V0.75H38.25V10.125H34.5ZM29.8125 29.8125H32.625V32.625H29.8125V29.8125ZM29.8125 24.1875H32.625V27H29.8125V24.1875ZM27 27H29.8125V29.8125H27V27ZM24.1875 29.8125H27V32.625H24.1875V29.8125ZM21.375 27H24.1875V29.8125H21.375V27ZM27 21.375H29.8125V24.1875H27V21.375ZM24.1875 24.1875H27V27H24.1875V24.1875ZM21.375 21.375H24.1875V24.1875H21.375V21.375ZM32.625 6.375V17.625H21.375V6.375H32.625ZM17.625 21.375V32.625H6.375V21.375H17.625ZM17.625 6.375V17.625H6.375V6.375H17.625ZM14.8125 29.8125V24.1875H9.1875V29.8125H14.8125ZM14.8125 14.8125V9.1875H9.1875V14.8125H14.8125ZM29.8125 14.8125V9.1875H24.1875V14.8125H29.8125Z" fill="white"/>
</svg>
