<svg width="89" height="107" viewBox="0 0 89 107" fill="none" xmlns="http://www.w3.org/2000/svg">
<path opacity="0.5" d="M58.3335 30H31.6668C29.8259 30 28.3335 31.4924 28.3335 33.3333V60C28.3335 61.841 29.8259 63.3333 31.6668 63.3333H58.3335C60.1744 63.3333 61.6668 61.841 61.6668 60V33.3333C61.6668 31.4924 60.1744 30 58.3335 30Z" fill="#FFF200"/>
<path fill-rule="evenodd" clip-rule="evenodd" d="M65 9.99999H25C23.1591 9.99999 21.6667 11.4924 21.6667 13.3333V66.6667C21.6667 68.5077 23.1591 70 25 70H65C66.841 70 68.3333 68.5077 68.3333 66.6667V13.3333C68.3333 11.4924 66.841 9.99999 65 9.99999ZM25 3.33333C19.4772 3.33333 15 7.81049 15 13.3333V66.6667C15 72.1897 19.4772 76.6667 25 76.6667H65C70.523 76.6667 75 72.1897 75 66.6667V13.3333C75 7.81049 70.523 3.33333 65 3.33333H25Z" fill="#E1E8ED"/>
<path d="M28.3335 20C28.3335 18.1591 29.8259 16.6667 31.6668 16.6667H45.0002C46.8412 16.6667 48.3335 18.1591 48.3335 20C48.3335 21.8409 46.8412 23.3333 45.0002 23.3333H31.6668C29.8259 23.3333 28.3335 21.8409 28.3335 20Z" fill="#99AAB5"/>
<path d="M3.304 104V95.74H0.056V94.2H8.372V95.74H5.124V104H3.304ZM12.1643 104.098C11.3989 104.098 10.7176 103.935 10.1203 103.608C9.52292 103.272 9.05158 102.815 8.70625 102.236C8.36092 101.657 8.18825 100.999 8.18825 100.262C8.18825 99.5153 8.36092 98.8573 8.70625 98.288C9.05158 97.7093 9.52292 97.2567 10.1203 96.93C10.7176 96.6033 11.3989 96.44 12.1643 96.44C12.9389 96.44 13.6249 96.6033 14.2223 96.93C14.8289 97.2567 15.3003 97.7047 15.6363 98.274C15.9816 98.8433 16.1543 99.506 16.1543 100.262C16.1543 100.999 15.9816 101.657 15.6363 102.236C15.3003 102.815 14.8289 103.272 14.2223 103.608C13.6249 103.935 12.9389 104.098 12.1643 104.098ZM12.1643 102.6C12.5936 102.6 12.9763 102.507 13.3123 102.32C13.6483 102.133 13.9096 101.863 14.0963 101.508C14.2923 101.153 14.3903 100.738 14.3903 100.262C14.3903 99.7767 14.2923 99.3613 14.0963 99.016C13.9096 98.6613 13.6483 98.3907 13.3123 98.204C12.9763 98.0173 12.5983 97.924 12.1783 97.924C11.7489 97.924 11.3663 98.0173 11.0303 98.204C10.7036 98.3907 10.4423 98.6613 10.2463 99.016C10.0503 99.3613 9.95225 99.7767 9.95225 100.262C9.95225 100.738 10.0503 101.153 10.2463 101.508C10.4423 101.863 10.7036 102.133 11.0303 102.32C11.3663 102.507 11.7443 102.6 12.1643 102.6ZM20.9917 104.098C20.273 104.098 19.6244 103.939 19.0457 103.622C18.4764 103.295 18.0284 102.847 17.7017 102.278C17.375 101.709 17.2117 101.037 17.2117 100.262C17.2117 99.4873 17.375 98.8153 17.7017 98.246C18.0284 97.6767 18.4764 97.2333 19.0457 96.916C19.6244 96.5987 20.273 96.44 20.9917 96.44C21.617 96.44 22.177 96.58 22.6717 96.86C23.1664 97.1307 23.5584 97.546 23.8477 98.106C24.137 98.666 24.2817 99.3847 24.2817 100.262C24.2817 101.13 24.1417 101.849 23.8617 102.418C23.5817 102.978 23.1944 103.398 22.6997 103.678C22.205 103.958 21.6357 104.098 20.9917 104.098ZM21.2017 102.6C21.6217 102.6 21.995 102.507 22.3217 102.32C22.6577 102.133 22.9237 101.863 23.1197 101.508C23.325 101.153 23.4277 100.738 23.4277 100.262C23.4277 99.7767 23.325 99.3613 23.1197 99.016C22.9237 98.6613 22.6577 98.3907 22.3217 98.204C21.995 98.0173 21.6217 97.924 21.2017 97.924C20.7817 97.924 20.4037 98.0173 20.0677 98.204C19.741 98.3907 19.475 98.6613 19.2697 99.016C19.0737 99.3613 18.9757 99.7767 18.9757 100.262C18.9757 100.738 19.0737 101.153 19.2697 101.508C19.475 101.863 19.741 102.133 20.0677 102.32C20.4037 102.507 20.7817 102.6 21.2017 102.6ZM23.4697 104V102.236L23.5397 100.248L23.3997 98.26V93.612H25.1357V104H23.4697ZM32.045 104V102.488L31.947 102.166V99.52C31.947 99.0067 31.793 98.61 31.485 98.33C31.177 98.0407 30.7103 97.896 30.085 97.896C29.665 97.896 29.2497 97.9613 28.839 98.092C28.4377 98.2227 28.097 98.4047 27.817 98.638L27.131 97.364C27.5323 97.056 28.0083 96.8273 28.559 96.678C29.119 96.5193 29.6977 96.44 30.295 96.44C31.3777 96.44 32.213 96.7013 32.801 97.224C33.3983 97.7373 33.697 98.5353 33.697 99.618V104H32.045ZM29.693 104.098C29.133 104.098 28.643 104.005 28.223 103.818C27.803 103.622 27.4763 103.356 27.243 103.02C27.019 102.675 26.907 102.287 26.907 101.858C26.907 101.438 27.005 101.06 27.201 100.724C27.4063 100.388 27.7377 100.122 28.195 99.926C28.6523 99.73 29.259 99.632 30.015 99.632H32.185V100.794H30.141C29.5437 100.794 29.1423 100.892 28.937 101.088C28.7317 101.275 28.629 101.508 28.629 101.788C28.629 102.105 28.755 102.357 29.007 102.544C29.259 102.731 29.609 102.824 30.057 102.824C30.4863 102.824 30.869 102.726 31.205 102.53C31.5503 102.334 31.7977 102.045 31.947 101.662L32.241 102.712C32.073 103.151 31.7697 103.491 31.331 103.734C30.9017 103.977 30.3557 104.098 29.693 104.098ZM36.4222 106.814C36.0582 106.814 35.6942 106.753 35.3302 106.632C34.9662 106.511 34.6629 106.343 34.4202 106.128L35.1202 104.84C35.2975 104.999 35.4982 105.125 35.7222 105.218C35.9462 105.311 36.1749 105.358 36.4082 105.358C36.7255 105.358 36.9822 105.279 37.1782 105.12C37.3742 104.961 37.5562 104.695 37.7242 104.322L38.1582 103.342L38.2982 103.132L41.1262 96.524H42.8062L39.3062 104.602C39.0729 105.162 38.8115 105.605 38.5222 105.932C38.2422 106.259 37.9249 106.487 37.5702 106.618C37.2249 106.749 36.8422 106.814 36.4222 106.814ZM37.9622 104.266L34.5882 96.524H36.4082L39.1522 102.978L37.9622 104.266ZM52.5291 104.14C51.7638 104.14 51.0591 104.014 50.4151 103.762C49.7711 103.51 49.2111 103.16 48.7351 102.712C48.2591 102.255 47.8904 101.723 47.6291 101.116C47.3678 100.5 47.2371 99.828 47.2371 99.1C47.2371 98.372 47.3678 97.7047 47.6291 97.098C47.8904 96.482 48.2591 95.95 48.7351 95.502C49.2111 95.0447 49.7711 94.69 50.4151 94.438C51.0591 94.186 51.7591 94.06 52.5151 94.06C53.2804 94.06 53.9804 94.186 54.6151 94.438C55.2591 94.69 55.8191 95.0447 56.2951 95.502C56.7711 95.95 57.1398 96.482 57.4011 97.098C57.6624 97.7047 57.7931 98.372 57.7931 99.1C57.7931 99.828 57.6624 100.5 57.4011 101.116C57.1398 101.732 56.7711 102.264 56.2951 102.712C55.8191 103.16 55.2591 103.51 54.6151 103.762C53.9804 104.014 53.2851 104.14 52.5291 104.14ZM52.5151 102.544C53.0098 102.544 53.4671 102.46 53.8871 102.292C54.3071 102.124 54.6711 101.886 54.9791 101.578C55.2871 101.261 55.5251 100.897 55.6931 100.486C55.8704 100.066 55.9591 99.604 55.9591 99.1C55.9591 98.596 55.8704 98.1387 55.6931 97.728C55.5251 97.308 55.2871 96.944 54.9791 96.636C54.6711 96.3187 54.3071 96.076 53.8871 95.908C53.4671 95.74 53.0098 95.656 52.5151 95.656C52.0204 95.656 51.5631 95.74 51.1431 95.908C50.7324 96.076 50.3684 96.3187 50.0511 96.636C49.7431 96.944 49.5004 97.308 49.3231 97.728C49.1551 98.1387 49.0711 98.596 49.0711 99.1C49.0711 99.5947 49.1551 100.052 49.3231 100.472C49.5004 100.892 49.7431 101.261 50.0511 101.578C50.3591 101.886 50.7231 102.124 51.1431 102.292C51.5631 102.46 52.0204 102.544 52.5151 102.544ZM59.5543 104V96.524H61.2203V98.582L61.0243 97.98C61.2483 97.476 61.5983 97.0933 62.0743 96.832C62.5596 96.5707 63.1616 96.44 63.8803 96.44V98.106C63.8056 98.0873 63.7356 98.078 63.6703 98.078C63.6049 98.0687 63.5396 98.064 63.4743 98.064C62.8116 98.064 62.2843 98.26 61.8923 98.652C61.5003 99.0347 61.3043 99.6087 61.3043 100.374V104H59.5543ZM68.4604 104.098C67.7418 104.098 67.0931 103.939 66.5144 103.622C65.9451 103.295 65.4971 102.847 65.1704 102.278C64.8438 101.709 64.6804 101.037 64.6804 100.262C64.6804 99.4873 64.8438 98.8153 65.1704 98.246C65.4971 97.6767 65.9451 97.2333 66.5144 96.916C67.0931 96.5987 67.7418 96.44 68.4604 96.44C69.0858 96.44 69.6458 96.58 70.1404 96.86C70.6351 97.1307 71.0271 97.546 71.3164 98.106C71.6058 98.666 71.7504 99.3847 71.7504 100.262C71.7504 101.13 71.6104 101.849 71.3304 102.418C71.0504 102.978 70.6631 103.398 70.1684 103.678C69.6738 103.958 69.1044 104.098 68.4604 104.098ZM68.6704 102.6C69.0904 102.6 69.4638 102.507 69.7904 102.32C70.1264 102.133 70.3924 101.863 70.5884 101.508C70.7938 101.153 70.8964 100.738 70.8964 100.262C70.8964 99.7767 70.7938 99.3613 70.5884 99.016C70.3924 98.6613 70.1264 98.3907 69.7904 98.204C69.4638 98.0173 69.0904 97.924 68.6704 97.924C68.2504 97.924 67.8724 98.0173 67.5364 98.204C67.2098 98.3907 66.9438 98.6613 66.7384 99.016C66.5424 99.3613 66.4444 99.7767 66.4444 100.262C66.4444 100.738 66.5424 101.153 66.7384 101.508C66.9438 101.863 67.2098 102.133 67.5364 102.32C67.8724 102.507 68.2504 102.6 68.6704 102.6ZM70.9384 104V102.236L71.0084 100.248L70.8684 98.26V93.612H72.6044V104H70.9384ZM78.4218 104.098C77.5911 104.098 76.8631 103.935 76.2378 103.608C75.6218 103.272 75.1411 102.815 74.7958 102.236C74.4598 101.657 74.2918 100.999 74.2918 100.262C74.2918 99.5153 74.4551 98.8573 74.7818 98.288C75.1178 97.7093 75.5751 97.2567 76.1538 96.93C76.7418 96.6033 77.4091 96.44 78.1558 96.44C78.8838 96.44 79.5324 96.5987 80.1018 96.916C80.6711 97.2333 81.1191 97.6813 81.4458 98.26C81.7724 98.8387 81.9358 99.52 81.9358 100.304C81.9358 100.379 81.9311 100.463 81.9218 100.556C81.9218 100.649 81.9171 100.738 81.9078 100.822H75.6778V99.66H80.9838L80.2978 100.024C80.3071 99.5947 80.2184 99.2167 80.0318 98.89C79.8451 98.5633 79.5884 98.3067 79.2618 98.12C78.9444 97.9333 78.5758 97.84 78.1558 97.84C77.7264 97.84 77.3484 97.9333 77.0218 98.12C76.7044 98.3067 76.4524 98.568 76.2658 98.904C76.0884 99.2307 75.9998 99.618 75.9998 100.066V100.346C75.9998 100.794 76.1024 101.191 76.3078 101.536C76.5131 101.881 76.8024 102.147 77.1758 102.334C77.5491 102.521 77.9784 102.614 78.4638 102.614C78.8838 102.614 79.2618 102.549 79.5978 102.418C79.9338 102.287 80.2324 102.082 80.4938 101.802L81.4318 102.88C81.0958 103.272 80.6711 103.575 80.1578 103.79C79.6538 103.995 79.0751 104.098 78.4218 104.098ZM83.6168 104V96.524H85.2828V98.582L85.0868 97.98C85.3108 97.476 85.6608 97.0933 86.1368 96.832C86.6221 96.5707 87.2241 96.44 87.9428 96.44V98.106C87.8681 98.0873 87.7981 98.078 87.7328 98.078C87.6674 98.0687 87.6021 98.064 87.5368 98.064C86.8741 98.064 86.3468 98.26 85.9548 98.652C85.5628 99.0347 85.3668 99.6087 85.3668 100.374V104H83.6168Z" fill="black"/>
</svg>
